HIERARCHY
ROOT Hips
{
	OFFSET 0.000000 88.474243 0.000000
	CHANNELS 6 Xposition Yposition Zposition Zrotation Yrotation Xrotation 
	JOINT Hips_Spine
	{
		OFFSET 0.000000 0.000000 0.000000
		CHANNELS 3 Zrotation Yrotation Xrotation
		JOINT Spine
		{
			OFFSET 0.005100 8.711998 -0.691000
			CHANNELS 3 Zrotation Yrotation Xrotation
			JOINT Spine1
			{
				OFFSET -0.009200 8.660301 -1.275000
				CHANNELS 3 Zrotation Yrotation Xrotation
				JOINT Spine2
				{
					OFFSET 0.006300 9.852501 -1.857000
					CHANNELS 3 Zrotation Yrotation Xrotation
					JOINT Spine2_Neck
					{
						OFFSET 0.000000 0.000000 0.000000
						CHANNELS 3 Zrotation Yrotation Xrotation
						JOINT Neck
						{
							OFFSET 0.016300 11.420799 -0.263300
							CHANNELS 3 Zrotation Yrotation Xrotation
							End Site #name: Head
							{
								OFFSET -0.019200 9.262405 2.362500
							}
						}
					}
					JOINT Spine2_LeftShoulder
					{
						OFFSET 0.000000 0.000000 0.000000
						CHANNELS 3 Zrotation Yrotation Xrotation
						JOINT LeftShoulder
						{
							OFFSET 5.616900 6.732201 -0.345700
							CHANNELS 3 Zrotation Yrotation Xrotation
							JOINT LeftArm
							{
								OFFSET 10.664888 -0.183372 -2.440700
								CHANNELS 3 Zrotation Yrotation Xrotation
								JOINT LeftForeArm
								{
									OFFSET 27.459126 0.000000 0.000000
									CHANNELS 3 Zrotation Yrotation Xrotation
									End Site #name: LeftHand
									{
										OFFSET 21.306858 0.000000 0.000000
									}
								}
							}
						}
					}
					JOINT Spine2_RightShoulder
					{
						OFFSET 0.000000 0.000000 0.000000
						CHANNELS 3 Zrotation Yrotation Xrotation
						JOINT RightShoulder
						{
							OFFSET -5.580300 6.737503 -0.344400
							CHANNELS 3 Zrotation Yrotation Xrotation
							JOINT RightArm
							{
								OFFSET -10.679335 -0.188484 -2.383900
								CHANNELS 3 Zrotation Yrotation Xrotation
								JOINT RightForeArm
								{
									OFFSET -27.503529 0.000000 0.000000
									CHANNELS 3 Zrotation Yrotation Xrotation
									End Site #name: RightHand
									{
										OFFSET -21.306808 0.000000 0.000000
									}
								}
							}
						}
					}
				}
			}
		}
	}
	JOINT Hips_LeftUpLeg
	{
		OFFSET 0.000000 0.000000 0.000000
		CHANNELS 3 Zrotation Yrotation Xrotation
		JOINT LeftUpLeg
		{
			OFFSET 6.857700 -6.739601 0.312100
			CHANNELS 3 Zrotation Yrotation Xrotation
			JOINT LeftLeg
			{
				OFFSET -0.367590 -34.731552 -4.572400
				CHANNELS 3 Zrotation Yrotation Xrotation
				End Site #name: LeftFoot
				{
					OFFSET 0.367590 -34.656704 -6.067400
				}
			}
		}
	}
	JOINT Hips_RightUpLeg
	{
		OFFSET 0.000000 0.000000 0.000000
		CHANNELS 3 Zrotation Yrotation Xrotation
		JOINT RightUpLeg
		{
			OFFSET -6.876100 -6.733299 0.301000
			CHANNELS 3 Zrotation Yrotation Xrotation
			JOINT RightLeg
			{
				OFFSET 0.347353 -34.795158 -4.515900
				CHANNELS 3 Zrotation Yrotation Xrotation
				End Site #name: RightFoot
				{
					OFFSET -0.347353 -34.589367 -6.070300
				}
			}
		}
	}
}
MOTION
Frames: 6
Frame Time: 0.041667
2.826795 -0.589243 -2.135415 175.654431 31.794937 -178.600486 0.000000 -0.000000 0.000000 3.071499 -0.279381 3.535398 -0.102370 -1.865967 3.512146 0.000000 0.000000 0.000000 0.548900 -1.857233 4.511017 1.367424 -28.481962 2.302416 -0.312724 -1.653396 1.443263 -1.226502 -0.631353 -2.016629 -75.883527 -24.721759 12.365684 10.575788 -25.603533 9.065791 -0.175326 -3.093271 2.390143 15.632225 8.518369 4.508456 56.494385 18.574028 3.262340 -10.143480 78.293862 -5.599831 0.000000 0.000000 -0.000000 -2.201139 16.302383 -10.204936 -0.662401 -30.018719 -9.894777 0.000000 0.000000 -0.000000 -5.403590 -44.054124 -11.952046 -14.925575 -11.793250 24.088223 
2.875113 -0.588693 -2.175728 175.633122 31.349932 -178.706264 0.000000 -0.000000 0.000000 2.946995 -0.264019 3.627854 -0.159182 -1.819479 3.381811 0.000000 0.000000 0.000000 0.516835 -1.825712 4.419002 1.174020 -27.963887 2.207532 -0.334249 -1.614725 1.380776 -1.289073 -0.727812 -1.972732 -75.563836 -25.082406 12.580043 10.677954 -26.030901 8.808823 -0.191544 -3.040369 2.261662 15.518981 8.695324 4.561643 56.386375 18.592073 3.309645 -10.028314 77.878177 -5.458428 0.000000 0.000000 -0.000000 -2.222733 16.185875 -10.331692 -0.682622 -30.002718 -9.867007 0.000000 0.000000 -0.000000 -5.296323 -43.901720 -11.999811 -14.759045 -11.493787 24.073438 
2.926727 -0.585186 -2.214091 175.629096 30.671735 -178.805552 0.000000 -0.000000 0.000000 2.809328 -0.253846 3.734941 -0.221684 -1.775020 3.251224 0.000000 0.000000 0.000000 0.477237 -1.793216 4.297476 0.936653 -27.354215 2.077843 -0.360486 -1.574555 1.317636 -1.336712 -0.841321 -1.931286 -75.230318 -25.431455 12.769281 10.771840 -26.516441 8.535492 -0.212164 -2.987400 2.131436 15.389381 8.803274 4.625069 56.293300 18.610668 3.387810 -9.999534 77.609792 -5.411705 0.000000 0.000000 -0.000000 -2.236223 16.070842 -10.460987 -0.721607 -29.980360 -9.778705 0.000000 -0.000000 -0.000000 -5.224542 -43.640272 -12.006958 -14.495481 -11.168747 23.984380 
2.982661 -0.578641 -2.251159 175.645966 29.721275 -178.895210 0.000000 -0.000000 0.000000 2.650520 -0.265537 3.850892 -0.293504 -1.733414 3.125434 0.000000 0.000000 0.000000 0.429921 -1.762322 4.165300 0.690823 -26.684648 1.900698 -0.393534 -1.534716 1.256637 -1.364457 -1.000754 -1.885333 -74.908428 -25.754932 12.952779 10.843035 -26.998140 8.250002 -0.241068 -2.938882 2.007688 15.241922 8.839590 4.691032 56.205176 18.641513 3.420063 -10.077574 77.531245 -5.478808 0.000000 0.000000 -0.000000 -2.252440 15.966328 -10.594316 -0.774012 -29.955233 -9.637119 0.000000 -0.000000 -0.000000 -5.182826 -43.299587 -11.981552 -14.200197 -10.881548 23.851505 
3.044090 -0.569012 -2.287675 175.676159 28.482934 -178.974787 0.000000 -0.000000 0.000000 2.469354 -0.306688 3.985960 -0.353311 -1.693298 3.011980 0.000000 0.000000 0.000000 0.376473 -1.733217 4.043252 0.464951 -25.928157 1.636915 -0.427767 -1.496329 1.202461 -1.372455 -1.219509 -1.827545 -74.598578 -26.064116 13.096839 10.887111 -27.468802 7.959807 -0.283259 -2.898625 1.921989 15.074361 8.804440 4.760873 56.123573 18.649271 3.423419 -10.301709 77.680484 -5.698205 0.000000 0.000000 -0.000000 -2.269071 15.870755 -10.732228 -0.837852 -29.904585 -9.444592 0.000000 -0.000000 -0.000000 -5.169966 -42.926743 -11.932541 -13.886575 -10.670806 23.678507 
3.110569 -0.556722 -2.324561 175.700952 27.007561 -179.048972 0.000000 -0.000000 0.000000 2.261666 -0.370968 4.135462 -0.414952 -1.659171 2.912459 0.000000 0.000000 0.000000 0.317218 -1.703988 3.929392 0.290084 -25.052213 1.270660 -0.469188 -1.460852 1.151366 -1.353575 -1.487572 -1.763908 -74.321349 -26.348555 13.198565 10.879215 -27.965065 7.658935 -0.334741 -2.862927 1.841115 14.901680 8.713620 4.829372 56.044176 18.654340 3.323319 -10.748968 78.137404 -6.149617 0.000000 0.000000 -0.000000 -2.289614 15.767692 -10.893905 -0.917288 -29.822631 -9.185816 0.000000 -0.000000 -0.000000 -5.167634 -42.548162 -11.883292 -13.513460 -10.357777 23.471779 
